<svg width="111" height="111" viewBox="0 0 111 111" fill="none" xmlns="http://www.w3.org/2000/svg">
<rect width="111" height="111" fill="url(#paint0_radial_1146_141)"/>
<path d="M86 59.6951C84.167 75.074 71.0358 87 55.1094 87M79.259 36.4565C73.555 29.4661 64.8556 25 55.1094 25C50.7894 25 46.6751 25.8774 42.9361 27.4632M24.6763 49.5407C24.2331 51.6242 24 53.785 24 56C24 65.0723 27.9109 73.2343 34.1444 78.9034M74.0568 67C75.9287 63.7641 77 60.0072 77 56C77 48.4384 73.1851 41.7678 67.375 37.8079M55 34C52.8517 34 50.7753 34.3079 48.8125 34.8821C44.772 36.064 41.2132 38.3739 38.5 41.448M55 78C46.0319 78 38.3171 72.634 34.8912 64.9375C33.6756 62.2065 33 59.1822 33 56M69 56C69 63.1797 62.9558 69 55.5 69M47.4 66.401C44.121 64.0292 42 60.2531 42 56M47 54C47 49.5817 50.5817 46 55 46M59.8 47.5994C61.7431 49.0589 63 51.3827 63 54" stroke="url(#paint1_radial_1146_141)" stroke-width="2" stroke-linecap="round" stroke-linejoin="round"/>
<path d="M105 14.0816L104.624 42L103.494 24V15.1837C103.494 9.89388 97.9726 7.83673 95.2118 7.46939C92.3255 7.46939 86.0259 7.39592 83.9176 7.10204C81.8094 6.80816 75.7608 6.2449 73 6H96.7176C102.741 6 104.749 11.3878 105 14.0816Z" fill="white" fill-opacity="0.64"/>
<path d="M6 97.9184L6.37647 70L7.50588 88L7.50588 96.8163C7.50588 102.106 13.0274 104.163 15.7882 104.531C18.6745 104.531 24.9741 104.604 27.0824 104.898C29.1906 105.192 35.2392 105.755 38 106L14.2824 106C8.25882 106 6.25098 100.612 6 97.9184Z" fill="black" fill-opacity="0.22"/>
<defs>
<radialGradient id="paint0_radial_1146_141" cx="0" cy="0" r="1" gradientUnits="userSpaceOnUse" gradientTransform="translate(55.5 55.5) rotate(90) scale(55.5)">
<stop stop-color="#923C01"/>
<stop offset="1" stop-color="#7A3200"/>
</radialGradient>
<radialGradient id="paint1_radial_1146_141" cx="0" cy="0" r="1" gradientUnits="userSpaceOnUse" gradientTransform="translate(55 56) rotate(90) scale(48)">
<stop stop-color="#4B2215"/>
<stop offset="1" stop-opacity="0"/>
</radialGradient>
</defs>
</svg>
